<svg width="30" height="27" viewBox="0 0 30 27" fill="none" xmlns="http://www.w3.org/2000/svg">
<path d="M6.44808 20.1333C7.68766 19.2667 9.07308 18.5836 10.6043 18.084C12.1356 17.5844 13.7397 17.3342 15.4168 17.3333C17.0939 17.3324 18.6981 17.5827 20.2293 18.084C21.7606 18.5853 23.146 19.2684 24.3856 20.1333C25.2363 19.2222 25.8988 18.1889 26.3733 17.0333C26.8477 15.8778 27.0845 14.6444 27.0835 13.3333C27.0835 10.3778 25.9475 7.86089 23.6754 5.78267C21.4033 3.70444 18.6504 2.66578 15.4168 2.66667C12.1832 2.66756 9.43037 3.70667 7.15829 5.784C4.88621 7.86133 3.75016 10.3778 3.75016 13.3333C3.75016 14.6444 3.98739 15.8778 4.46183 17.0333C4.93628 18.1889 5.59836 19.2222 6.44808 20.1333ZM15.4168 14.6667C13.9828 14.6667 12.7734 14.2169 11.7885 13.3173C10.8036 12.4178 10.3117 11.312 10.3127 10C10.3136 8.688 10.8061 7.58222 11.79 6.68267C12.7738 5.78311 13.9828 5.33333 15.4168 5.33333C16.8509 5.33333 18.0603 5.78356 19.0452 6.684C20.03 7.58445 20.522 8.68978 20.521 10C20.52 11.3102 20.0281 12.416 19.0452 13.3173C18.0622 14.2187 16.8528 14.6684 15.4168 14.6667ZM15.4168 26.6667C13.3995 26.6667 11.5036 26.3164 9.72933 25.616C7.95503 24.9156 6.41162 23.9658 5.09912 22.7667C3.78662 21.5676 2.7478 20.1564 1.98266 18.5333C1.21753 16.9102 0.83447 15.1769 0.833498 13.3333C0.832526 11.4898 1.21558 9.75645 1.98266 8.13334C2.74975 6.51022 3.78857 5.09911 5.09912 3.9C6.40968 2.70089 7.95308 1.75111 9.72933 1.05067C11.5056 0.350222 13.4014 0 15.4168 0C17.4322 0 19.3281 0.350222 21.1043 1.05067C22.8806 1.75111 24.424 2.70089 25.7345 3.9C27.0451 5.09911 28.0844 6.51022 28.8525 8.13334C29.6205 9.75645 30.0031 11.4898 30.0002 13.3333C29.9972 15.1769 29.6142 16.9102 28.851 18.5333C28.0878 20.1564 27.049 21.5676 25.7345 22.7667C24.4201 23.9658 22.8767 24.916 21.1043 25.6173C19.332 26.3187 17.4361 26.6684 15.4168 26.6667Z" fill="white"/>
</svg>
