<svg width="26" height="21" viewBox="0 0 26 21" fill="none" xmlns="http://www.w3.org/2000/svg">
<path d="M0.5 3.25016C0.5 2.60922 0.763392 1.99453 1.23223 1.54132C1.70107 1.08811 2.33696 0.833496 3 0.833496H23C23.6631 0.833496 24.2989 1.08811 24.7678 1.54132C25.2366 1.99453 25.5 2.60922 25.5 3.25016V17.7502C25.5 18.3911 25.2366 19.0058 24.7678 19.459C24.2989 19.9122 23.6631 20.1668 23 20.1668H3C2.33696 20.1668 1.70107 19.9122 1.23223 19.459C0.763392 19.0058 0.5 18.3911 0.5 17.7502V3.25016ZM4.89875 3.25016L13 10.1026L21.1013 3.25016H4.89875ZM23 4.85604L13.8238 12.6184C13.5958 12.8114 13.3031 12.9179 13 12.9179C12.6969 12.9179 12.4042 12.8114 12.1763 12.6184L3 4.85604V17.7502H23V4.85604Z" fill="#B6B6B6"/>
</svg>
