<svg width="40" height="40" viewBox="0 0 40 40" fill="none" xmlns="http://www.w3.org/2000/svg">
<path d="M7.05992 5.46849C6.777 5.16448 6.39807 4.99626 6.00476 5.00006C5.61144 5.00387 5.2352 5.17939 4.95708 5.48882C4.67895 5.79826 4.52119 6.21685 4.51777 6.65444C4.51435 7.09204 4.66555 7.51361 4.9388 7.82838L8.575 11.8739C6.42988 13.6697 4.55778 16.1364 3.15821 19.254C3.05416 19.4856 3 19.741 3 20C3 20.259 3.05416 20.5144 3.15821 20.746C6.39538 27.9509 12.1437 31.6826 18 31.6826C20.3326 31.6826 22.6502 31.0901 24.7954 29.9219L28.9401 34.5315C29.223 34.8355 29.6019 35.0037 29.9952 34.9999C30.3886 34.9961 30.7648 34.8206 31.0429 34.5112C31.3211 34.2017 31.4788 33.7831 31.4822 33.3456C31.4856 32.908 31.3344 32.4864 31.0612 32.1716L7.05992 5.46849ZM22.5212 27.3901C21.0512 28.0293 19.5211 28.3447 18 28.3447C13.5463 28.3447 8.99652 25.641 6.19437 20C7.41994 17.5316 8.98152 15.6274 10.7216 14.2638L13.9378 17.8421C13.5359 18.7766 13.4044 19.8268 13.5616 20.8479C13.7187 21.8691 14.1567 22.8108 14.8151 23.5434C15.4736 24.2759 16.32 24.7632 17.2379 24.938C18.1557 25.1129 19.0996 24.9666 19.9396 24.5195L22.5212 27.3901ZM27.8285 23.1643C28.5531 22.2364 29.2176 21.1833 29.8056 20C27.0035 14.359 22.4552 11.6553 18 11.6553C17.832 11.6553 17.664 11.6592 17.496 11.667L14.8183 8.68956C15.8643 8.44215 16.9307 8.3174 18 8.31738C23.8548 8.31738 29.6046 12.0491 32.8418 19.254C32.9458 19.4856 33 19.741 33 20C33 20.259 32.9458 20.5144 32.8418 20.746C32.0745 22.4756 31.1034 24.0836 29.9541 25.5275L27.8285 23.1643Z" fill="#B6B6B6"/>
</svg>
