<svg width="44" height="31" viewBox="0 0 44 31" fill="none" xmlns="http://www.w3.org/2000/svg">
<path d="M22 24.8C24.5 24.8 26.6253 23.8962 28.376 22.0885C30.1267 20.2809 31.0013 18.0847 31 15.5C30.9987 12.9153 30.124 10.7198 28.376 8.91353C26.628 7.10727 24.5027 6.20276 22 6.2C19.4973 6.19724 17.3727 7.10176 15.626 8.91353C13.8793 10.7253 13.004 12.9208 13 15.5C12.996 18.0792 13.8713 20.2754 15.626 22.0885C17.3807 23.9017 19.5053 24.8055 22 24.8ZM22 21.08C20.5 21.08 19.2253 20.5372 18.176 19.4515C17.1267 18.3658 16.6013 17.0486 16.6 15.5C16.5987 13.9514 17.124 12.6342 18.176 11.5485C19.228 10.4628 20.5027 9.92 22 9.92C23.4973 9.92 24.7727 10.4628 25.826 11.5485C26.8793 12.6342 27.404 13.9514 27.4 15.5C27.396 17.0486 26.8713 18.3665 25.826 19.4535C24.7807 20.5406 23.5053 21.0828 22 21.08ZM22 31C17.1333 31 12.7 29.5967 8.7 26.7902C4.7 23.9837 1.8 20.2203 0 15.5C1.8 10.7811 4.7 7.0184 8.7 4.21187C12.7 1.40533 17.1333 0.00137879 22 1.01307e-06C26.8667 -0.00137676 31.3 1.40258 35.3 4.21187C39.3 7.02116 42.2 10.7839 44 15.5C42.2 20.2189 39.3 23.9823 35.3 26.7902C31.3 29.5981 26.8667 31.0014 22 31ZM22 26.8667C25.7667 26.8667 29.2253 25.8423 32.376 23.7935C35.5267 21.7448 37.9347 18.9803 39.6 15.5C37.9333 12.0211 35.5247 9.25729 32.374 7.20853C29.2233 5.15978 25.7653 4.13471 22 4.13333C18.2347 4.13196 14.7767 5.15702 11.626 7.20853C8.47533 9.26004 6.06667 12.0239 4.4 15.5C6.06667 18.9789 8.47533 21.7434 11.626 23.7935C14.7767 25.8437 18.2347 26.868 22 26.8667Z" fill="#B6B6B6"/>
</svg>
